<svg width="508" height="198" viewBox="0 0 508 198" fill="none" xmlns="http://www.w3.org/2000/svg">
<path d="M379.5 0.5L335.6 29.4L312 41L296.3 45.1L245.8 77.5L209.3 93.7L189 81.5L164.7 89.6L120.1 118.1L99.8 110L63.3 126.2L47.1 130.3L0.400024 178.9L8.80002 197.5H507.5L499.1 178.9L448.3 101.9L436.1 61.4L411.8 33L407.8 20.8L379.5 0.5ZM379.5 28.9L387.6 41.1V57.3L416 81.6L424.1 110L464.6 174.8L395.7 170.7L347.1 178.8L322.8 154.6L318.7 130.3L319.7 93.8L355.2 45.1L379.5 28.9ZM311 69.1L285.6 117.6L278.3 154.6L233.7 178.9H176.8L245.7 105.9L298.7 70.3L311 69.1ZM180.9 101.9V110L172.8 118.1V126.2L168.7 134.3L164.6 162.7L148.4 178.9H91.7L164.7 110L180.9 101.9ZM95.7 130.2V142.4L59.2 178.9H28.9L51.2 150.5L67.4 146.4L95.7 130.2Z" fill="#C5C5C5"/>
</svg>
