<svg width="265" height="152" viewBox="0 0 265 152" fill="none" xmlns="http://www.w3.org/2000/svg">
<path d="M71.6 14.51C64.6 29.21 64.3 29.61 61.7 29.01C60.2 28.71 57.6 28.11 55.9 27.81L52.8 27.21L54.1 34.01C56.1 44.61 56.2 44.41 50.7 44.41C48 44.41 45.6 44.61 45.3 44.91C45 45.21 46.7 50.71 49.1 57.11C51.5 63.51 53.3 69.01 53 69.21C52.8 69.51 49.7 67.31 46.1 64.51L39.5 59.31L37.8 62.81C36.9 64.81 35.9 66.41 35.5 66.41C35.2 66.41 32.9 64.41 30.5 61.91C28.1 59.41 25.8 57.41 25.4 57.41C25.1 57.41 24 59.01 22.9 60.91C20.8 64.81 20.7 64.81 11.8 63.31C8.3 62.71 5.2 62.31 5 62.51C4.8 62.71 5.4 66.31 6.2 70.41C7.6 77.41 7.6 77.91 6 78.91C5 79.41 3.3 80.71 2.1 81.71L0 83.41L5.4 88.31L10.8 93.21L6.7 95.51C4.4 96.81 2.5 98.11 2.5 98.41C2.5 98.71 11.3 104.01 22 110.31C33 116.71 41.5 122.31 41.5 123.11C41.5 123.91 39 130.41 35.9 137.61C32.9 144.71 30.6 150.81 30.9 151.11C31.1 151.41 36.2 150.01 42.2 148.11C48.1 146.11 58.9 142.71 66.1 140.51L79.2 136.41L88 139.41C92.9 141.11 97.4 142.41 97.9 142.31C99.6 142.31 80.5 135.41 78.6 135.41C77.7 135.41 68 137.81 57 140.81C46 143.81 36.9 146.11 36.6 145.91C36.4 145.71 37 143.91 37.9 142.01C46.4 124.21 47.5 121.01 46.3 119.91C45.6 119.31 37.9 114.31 29.3 109.01C20.6 103.61 13.5 98.91 13.5 98.41C13.5 98.01 14.9 97.11 16.5 96.41C18.2 95.71 19.5 94.81 19.5 94.41C19.5 93.91 17.2 91.51 14.4 89.01C11.5 86.41 9.4 84.21 9.6 84.01C9.8 83.81 10.9 83.21 12.1 82.61C14 81.61 14.1 81.11 13.2 76.01C12.6 72.91 12.4 70.21 12.7 69.91C13 69.61 15.6 69.91 18.5 70.51C23.5 71.61 23.9 71.51 25.5 69.51L27.1 67.31L32 72.51L36.8 77.61L38.6 75.31C39.6 74.01 40 72.5 40.5 71.71C41.5 69 45.7 71 52.5 76.5C59.3 82 63 83.5 63 83.5C63.2 83.4 62.2 77.9 60.5 73.5C55.9 61.7 54.5 53.71 54.5 52.21C54.5 51.21 55.6 51.01 58.4 51.21C60.5 51.41 62.5 51.11 62.9 50.61C63.2 50.01 62.9 46.61 62.1 43.01C61.4 39.41 61 36.31 61.2 36.01C61.5 35.81 63 36.01 64.6 36.41C67.5 37.31 67.6 37.21 72 27.71C74.5 22.41 76.5 17.81 76.5 17.51C76.5 17.21 77.2 16.11 78 15.01C79.3 13.31 79.9 14.11 85 24.91L90.6 36.61L94.2 35.91L97.8 35.31L97.1 39.11C96.8 41.21 96.2 44.61 95.9 46.61L95.2 50.41H100.4C103.2 50.41 105.5 50.61 105.5 50.81C105.5 51.11 102.8 58.81 99.5 68.01C96.2 77.21 93.6 84.91 93.8 85.01C94 85.21 99 81.31 105 76.41C111.1 71.41 116.4 67.41 116.8 67.41C117.2 67.41 118.3 69.01 119.1 70.91C119.9 72.81 120.9 74.41 121.5 74.41C122 74.41 124.3 72.11 126.6 69.41C128.9 66.71 131.2 64.41 131.7 64.41C132.2 64.41 133.1 65.61 133.7 67.01C134.6 69.01 135.4 69.41 137.2 68.91C138.5 68.61 141.6 68.11 144.1 67.71L148.8 67.11L148.1 71.01C147.7 73.11 147.2 76.11 146.9 77.61C146.5 79.41 146.8 80.41 147.5 80.41C148.1 80.41 148.4 80.01 148.1 79.61C147.9 79.21 148.3 75.91 149 72.41C149.7 68.81 150.2 65.71 149.9 65.51C149.7 65.21 146.7 65.51 143.2 66.11C137.5 67.11 136.9 67.11 135.3 65.21C134.3 64.11 133.5 62.61 133.5 61.81C133.5 59.51 132.1 60.21 127.5 64.91C125.1 67.41 122.7 69.41 122.2 69.41C121.8 69.41 120.7 67.81 119.9 65.91C119.1 64.01 118.1 62.41 117.7 62.41C117.3 62.41 113.9 64.91 110 67.81C106.2 70.81 102.9 73.11 102.7 72.91C102.4 72.61 108.4 55.41 111.5 47.61C112.4 45.51 112.3 45.41 107 45.41C104 45.41 101.5 45.01 101.5 44.51C101.5 44.01 102.2 40.21 103.1 35.91C104 31.71 104.5 28.11 104.3 27.91C104.1 27.61 101.7 28.11 99 28.91C96.4 29.71 94 30.31 93.9 30.11C93.1 29.41 80.5 2.30997 80.5 1.40997C80.5 0.909973 80.1 0.309979 79.6 0.00997925C79.2 -0.290021 75.5 6.20998 71.6 14.51Z" fill="white"/>
<path d="M58.94 113.792C56.9747 107.867 54.408 100.431 51.24 91.484H50.932C50.932 91.8067 50.7413 94.256 50.36 98.832C49.8613 105.432 49.612 108.923 49.612 109.304C49.612 110.213 50.0813 110.668 51.02 110.668L52.692 110.624L52.824 110.844L52.384 113.176L51.24 113.132C49.128 113.044 47.9547 113 47.72 113C47.0453 113 46.268 113.044 45.388 113.132C44.508 113.249 43.936 113.323 43.672 113.352L43.936 110.932C44.816 110.844 45.4467 110.565 45.828 110.096C46.2387 109.627 46.5173 108.805 46.664 107.632C46.9573 105.109 47.3387 101.545 47.808 96.94C48.2773 92.3347 48.512 89.768 48.512 89.24C48.512 88.448 48.248 87.8907 47.72 87.568C47.192 87.216 46.268 86.996 44.948 86.908L44.772 86.644L45.124 84.664C47.324 84.8107 49.0253 84.884 50.228 84.884C50.4333 84.884 51.372 84.84 53.044 84.752L54.012 84.708C55.6253 90.1053 57.6347 96.324 60.04 103.364L60.612 104.992H60.876C61.228 103.965 61.5067 103.159 61.712 102.572C63.9413 96.236 65.9507 90.3107 67.74 84.796C68.092 84.796 68.4 84.8107 68.664 84.84C69.984 84.8987 70.9813 84.9133 71.656 84.884C72.3013 84.884 73.196 84.84 74.34 84.752C75.484 84.664 76.144 84.62 76.32 84.62L76.452 84.796L76.188 86.864C74.9267 87.0107 74.0467 87.26 73.548 87.612C73.0493 87.964 72.8 88.5067 72.8 89.24C72.8 90.032 72.932 92.408 73.196 96.368C73.46 100.299 73.7093 103.701 73.944 106.576C74.0613 107.72 74.1933 108.585 74.34 109.172C74.4867 109.729 74.692 110.125 74.956 110.36C75.22 110.565 75.5867 110.668 76.056 110.668C76.32 110.668 76.584 110.653 76.848 110.624C77.112 110.595 77.2587 110.58 77.288 110.58L77.42 110.8L77.024 113.132C76.8773 113.132 76.3053 113.103 75.308 113.044C74.34 113.015 73.4893 113 72.756 113C71.7 113 70.556 113.059 69.324 113.176C68.092 113.293 67.4467 113.352 67.388 113.352L67.652 110.932C68.532 110.815 69.1627 110.595 69.544 110.272C69.9547 109.92 70.16 109.407 70.16 108.732C70.16 108.38 70.072 106.972 69.896 104.508C69.72 102.044 69.5733 100.035 69.456 98.48C69.104 94.0213 68.928 91.6893 68.928 91.484H68.62C65.3933 100.431 62.812 107.749 60.876 113.44L58.94 113.792ZM91.533 113.044L91.665 111.152C92.897 111.035 93.689 110.903 94.041 110.756C94.4223 110.609 94.613 110.316 94.613 109.876C94.613 109.495 94.525 109.069 94.349 108.6L93.513 105.74C92.897 105.711 91.7383 105.696 90.037 105.696C89.1277 105.696 87.9397 105.769 86.473 105.916L85.417 108.732C85.2703 109.319 85.197 109.685 85.197 109.832C85.197 110.272 85.329 110.58 85.593 110.756C85.8863 110.932 86.3703 111.02 87.045 111.02H88.673L88.849 111.24L88.585 113.22C88.2623 113.191 87.5583 113.147 86.473 113.088C85.3877 113.029 84.361 113 83.393 113C82.425 113 81.545 113.015 80.753 113.044C79.961 113.073 79.433 113.088 79.169 113.088L79.433 110.976C80.0197 110.888 80.489 110.683 80.841 110.36C81.2223 110.008 81.5743 109.421 81.897 108.6L88.541 91.22L93.205 90.648L93.601 90.78C93.953 92.0707 94.701 94.7253 95.845 98.744C96.989 102.733 98.0157 106.019 98.925 108.6C99.189 109.451 99.5263 110.052 99.937 110.404C100.377 110.727 101.052 110.932 101.961 111.02L102.093 111.24L101.829 113.088C101.536 113.088 100.964 113.073 100.113 113.044C99.2917 113.015 98.441 113 97.561 113C96.329 113 95.1117 113.029 93.909 113.088C92.7357 113.176 91.9877 113.235 91.665 113.264L91.533 113.044ZM89.993 103.276C91.137 103.276 92.105 103.232 92.897 103.144L90.565 95.224H90.125L87.265 103.276H89.993ZM104.705 111.152C105.702 110.976 106.362 110.697 106.685 110.316C107.037 109.935 107.213 109.26 107.213 108.292L107.257 94.916C107.257 94.212 107.169 93.728 106.993 93.464C106.817 93.2 106.509 93.068 106.069 93.068L104.793 93.112L104.617 92.892L104.925 90.956C105.365 90.956 105.79 90.9707 106.201 91L109.325 91.044C110.205 91.044 111.173 91.0293 112.229 91C113.314 90.9413 114.077 90.8973 114.517 90.868C117.421 90.868 119.548 91.4693 120.897 92.672C122.246 93.8747 122.921 95.4293 122.921 97.336C122.921 98.656 122.525 99.9173 121.733 101.12C120.941 102.323 119.885 103.291 118.565 104.024C117.245 104.728 115.852 105.08 114.385 105.08H111.349L111.305 107.808C111.305 108.747 111.334 109.436 111.393 109.876C111.481 110.287 111.628 110.565 111.833 110.712C112.068 110.859 112.434 110.932 112.933 110.932C113.314 110.932 113.666 110.917 113.989 110.888C114.341 110.859 114.576 110.844 114.693 110.844L114.781 111.064L114.429 113.088C114.106 113.088 113.534 113.073 112.713 113.044C111.892 113.015 111.085 113 110.293 113C109.442 113 108.357 113.029 107.037 113.088C105.746 113.147 104.881 113.205 104.441 113.264L104.705 111.152ZM114.825 102.704C117.23 102.264 118.433 100.665 118.433 97.908C118.433 96.3827 117.964 95.268 117.025 94.564C116.116 93.86 114.649 93.508 112.625 93.508C112.273 93.508 112.053 93.5373 111.965 93.596C111.877 93.6547 111.818 93.816 111.789 94.08L111.701 95.576C111.672 96.28 111.628 97.204 111.569 98.348C111.51 99.4627 111.466 100.768 111.437 102.264L114.825 102.704ZM126.278 111.196C127.187 111.079 127.818 110.815 128.17 110.404C128.522 109.964 128.698 109.245 128.698 108.248L128.742 94.916C128.742 94.1827 128.654 93.6987 128.478 93.464C128.302 93.2 127.95 93.068 127.422 93.068L126.278 93.112L126.102 92.848L126.366 90.956C126.894 90.956 127.378 90.9707 127.818 91L131.03 91.044C131.675 91.044 132.584 91.0147 133.758 90.956C134.931 90.868 135.708 90.8093 136.09 90.78L135.826 92.98C135.034 93.068 134.462 93.2 134.11 93.376C133.758 93.552 133.538 93.8013 133.45 94.124C133.362 94.4173 133.288 94.916 133.23 95.62C132.936 99.316 132.79 103.569 132.79 108.38C132.79 109.319 132.936 109.92 133.23 110.184C133.552 110.448 134.242 110.58 135.298 110.58C136.559 110.58 137.498 110.463 138.114 110.228C138.73 109.964 139.184 109.48 139.478 108.776C139.8 108.072 140.079 106.957 140.314 105.432L142.91 105.168L143.086 105.476C143.027 105.887 142.895 106.84 142.69 108.336C142.484 109.803 142.294 111.343 142.118 112.956L141.81 113.308C141.135 113.279 139.712 113.22 137.542 113.132C135.371 113.044 133.45 113 131.778 113C130.516 113 129.314 113.044 128.17 113.132C127.055 113.249 126.336 113.323 126.014 113.352L126.278 111.196ZM145.135 111.196C146.161 111.079 146.865 110.815 147.247 110.404C147.628 109.964 147.819 109.245 147.819 108.248L147.863 94.916C147.863 94.1827 147.775 93.6987 147.599 93.464C147.452 93.2 147.129 93.068 146.631 93.068L145.487 93.112L145.311 92.892L145.619 90.956C146.029 90.956 146.807 90.9707 147.951 91C149.124 91.0293 150.385 91.044 151.735 91.044C156.809 91.044 160.461 90.912 162.691 90.648L162.911 90.912C162.852 91.264 162.72 92.0413 162.515 93.244C162.309 94.4467 162.163 95.7227 162.075 97.072L159.259 97.248C159.259 97.16 159.273 96.984 159.303 96.72C159.332 96.4267 159.347 96.1333 159.347 95.84C159.347 95.136 159.244 94.6373 159.039 94.344C158.833 94.0507 158.408 93.86 157.763 93.772C157.117 93.6547 156.032 93.596 154.507 93.596C153.832 93.596 153.348 93.6253 153.055 93.684C152.791 93.7427 152.615 93.8453 152.527 93.992C152.439 94.1387 152.395 94.4027 152.395 94.784L152.131 100.46L155.563 100.504C156.091 100.504 156.853 100.46 157.851 100.372C158.877 100.255 159.552 100.181 159.875 100.152L160.095 100.46L159.567 103.144C159.244 103.144 158.613 103.129 157.675 103.1C156.765 103.071 155.797 103.056 154.771 103.056C154.008 103.056 153.084 103.129 151.999 103.276C151.94 105.153 151.911 106.899 151.911 108.512C151.911 109.157 151.955 109.627 152.043 109.92C152.16 110.184 152.38 110.36 152.703 110.448C153.025 110.536 153.583 110.58 154.375 110.58C156.076 110.58 157.293 110.492 158.027 110.316C158.789 110.14 159.332 109.788 159.655 109.26C159.977 108.732 160.241 107.837 160.447 106.576L162.999 106.4L163.263 106.664C163.175 107.016 163.013 107.808 162.779 109.04C162.573 110.272 162.412 111.563 162.295 112.912L161.943 113.22C161.18 113.191 159.552 113.147 157.059 113.088C154.595 113.029 152.497 113 150.767 113C149.476 113 148.259 113.044 147.115 113.132C145.971 113.249 145.237 113.323 144.915 113.352L145.135 111.196ZM184.131 113.704C183.691 112.149 182.723 108.835 181.227 103.76C179.761 98.656 178.353 94.0067 177.003 89.812C176.739 88.932 176.314 88.2867 175.727 87.876C175.141 87.4653 174.334 87.2453 173.307 87.216L173.175 86.996L173.483 84.752C173.865 84.752 174.583 84.7813 175.639 84.84C176.695 84.8693 177.737 84.884 178.763 84.884C179.907 84.884 181.242 84.8253 182.767 84.708C184.293 84.5907 185.29 84.5027 185.759 84.444L185.935 84.796L185.715 86.908C184.659 86.996 183.882 87.0987 183.383 87.216C182.885 87.304 182.533 87.4653 182.327 87.7C182.151 87.9053 182.063 88.228 182.063 88.668C182.063 89.284 182.738 92.2027 184.087 97.424C185.466 102.645 186.419 106.195 186.947 108.072H187.431C188.487 105.373 189.837 101.619 191.479 96.808C193.151 91.9973 193.987 89.284 193.987 88.668C193.987 88.1107 193.782 87.7147 193.371 87.48C192.961 87.216 192.271 87.084 191.303 87.084H189.235L189.103 86.864L189.367 84.62C189.778 84.6493 190.643 84.708 191.963 84.796C193.313 84.8547 194.589 84.884 195.791 84.884C196.935 84.884 197.962 84.8693 198.871 84.84C199.81 84.8107 200.426 84.7813 200.719 84.752L200.411 87.216C199.59 87.2747 199.003 87.4507 198.651 87.744C198.329 88.008 198.021 88.5507 197.727 89.372L188.839 112.78L184.131 113.704ZM202.885 111.196C203.911 111.079 204.615 110.815 204.997 110.404C205.378 109.964 205.569 109.245 205.569 108.248L205.613 94.916C205.613 94.1827 205.525 93.6987 205.349 93.464C205.202 93.2 204.879 93.068 204.381 93.068L203.237 93.112L203.061 92.892L203.369 90.956C203.779 90.956 204.557 90.9707 205.701 91C206.874 91.0293 208.135 91.044 209.485 91.044C214.559 91.044 218.211 90.912 220.441 90.648L220.661 90.912C220.602 91.264 220.47 92.0413 220.265 93.244C220.059 94.4467 219.913 95.7227 219.825 97.072L217.009 97.248C217.009 97.16 217.023 96.984 217.053 96.72C217.082 96.4267 217.097 96.1333 217.097 95.84C217.097 95.136 216.994 94.6373 216.789 94.344C216.583 94.0507 216.158 93.86 215.513 93.772C214.867 93.6547 213.782 93.596 212.257 93.596C211.582 93.596 211.098 93.6253 210.805 93.684C210.541 93.7427 210.365 93.8453 210.277 93.992C210.189 94.1387 210.145 94.4027 210.145 94.784L209.881 100.46L213.313 100.504C213.841 100.504 214.603 100.46 215.601 100.372C216.627 100.255 217.302 100.181 217.625 100.152L217.845 100.46L217.317 103.144C216.994 103.144 216.363 103.129 215.425 103.1C214.515 103.071 213.547 103.056 212.521 103.056C211.758 103.056 210.834 103.129 209.749 103.276C209.69 105.153 209.661 106.899 209.661 108.512C209.661 109.157 209.705 109.627 209.793 109.92C209.91 110.184 210.13 110.36 210.453 110.448C210.775 110.536 211.333 110.58 212.125 110.58C213.826 110.58 215.043 110.492 215.777 110.316C216.539 110.14 217.082 109.788 217.405 109.26C217.727 108.732 217.991 107.837 218.197 106.576L220.749 106.4L221.013 106.664C220.925 107.016 220.763 107.808 220.529 109.04C220.323 110.272 220.162 111.563 220.045 112.912L219.693 113.22C218.93 113.191 217.302 113.147 214.809 113.088C212.345 113.029 210.247 113 208.517 113C207.226 113 206.009 113.044 204.865 113.132C203.721 113.249 202.987 113.323 202.665 113.352L202.885 111.196ZM225.314 111.24C226.4 111.035 227.118 110.741 227.47 110.36C227.822 109.979 227.998 109.304 227.998 108.336L228.042 94.916C228.042 94.1827 227.954 93.6987 227.778 93.464C227.602 93.2 227.25 93.068 226.722 93.068L225.402 93.112L225.27 92.848L225.49 90.956C226.018 90.956 226.502 90.9707 226.942 91L230.286 91.044C230.961 91.044 231.841 91.0147 232.926 90.956C234.041 90.868 234.774 90.8093 235.126 90.78L234.95 92.892C234.012 93.0093 233.381 93.1853 233.058 93.42C232.765 93.6547 232.589 94.1093 232.53 94.784C232.237 100.533 232.09 105.139 232.09 108.6C232.09 109.539 232.178 110.169 232.354 110.492C232.56 110.815 232.956 110.976 233.542 110.976C233.953 110.976 234.305 110.961 234.598 110.932C234.921 110.903 235.126 110.873 235.214 110.844L235.346 111.064L235.038 113.088C234.657 113.088 233.938 113.073 232.882 113.044C231.856 113.015 230.844 113 229.846 113C229.025 113 228.101 113.044 227.074 113.132C226.048 113.249 225.373 113.323 225.05 113.352L225.314 111.24ZM257.008 94.564C257.008 94.036 256.905 93.6693 256.7 93.464C256.524 93.2293 256.231 93.112 255.82 93.112H254.544L254.456 92.892L254.72 90.912C255.043 90.9413 255.615 90.9707 256.436 91C257.287 91.0293 258.137 91.044 258.988 91.044C259.692 91.044 260.484 91.0147 261.364 90.956C262.244 90.8973 262.816 90.8533 263.08 90.824L262.904 92.936C262.053 93.0533 261.452 93.2733 261.1 93.596C260.748 93.9187 260.557 94.432 260.528 95.136L260.044 113.572L257.096 114.012C254.573 110.287 252.021 106.664 249.44 103.144C246.888 99.624 245.612 97.8933 245.612 97.952H245.304L245.26 109.436C245.26 110.023 245.348 110.433 245.524 110.668C245.7 110.873 246.008 110.976 246.448 110.976L248.076 110.932L248.296 111.064L247.9 113.132C247.577 113.103 246.991 113.073 246.14 113.044C245.289 113.015 244.409 113 243.5 113C242.767 113 241.96 113.029 241.08 113.088C240.229 113.176 239.672 113.235 239.408 113.264L239.672 111.152C240.405 111.064 240.933 110.859 241.256 110.536C241.608 110.213 241.799 109.7 241.828 108.996L242.312 95.092C242.312 94.3587 242.107 93.86 241.696 93.596C241.285 93.3027 240.493 93.0827 239.32 92.936L239.056 92.672L239.364 90.868C239.628 90.8973 240.171 90.9413 240.992 91C241.813 91.0293 242.547 91.044 243.192 91.044C243.925 91.044 244.585 91.0293 245.172 91C245.759 90.9707 246.155 90.9413 246.36 90.912C248.472 94.1093 250.584 97.16 252.696 100.064C254.808 102.968 256.172 104.831 256.788 105.652H257.096L257.008 94.564Z" fill="white"/>
<path d="M96.595 120.878L93.452 131H91.751L89.539 124.084C89.4783 123.916 89.4223 123.711 89.371 123.468C89.343 123.585 89.315 123.694 89.287 123.797C89.259 123.9 89.2287 123.995 89.196 124.084L86.963 131H85.255L82.119 120.878H83.694C83.8573 120.878 83.9927 120.918 84.1 120.997C84.212 121.072 84.2867 121.174 84.324 121.305L86.046 127.36C86.0833 127.509 86.1183 127.673 86.151 127.85C86.1883 128.023 86.2257 128.205 86.263 128.396C86.3003 128.2 86.34 128.016 86.382 127.843C86.4287 127.67 86.4777 127.509 86.529 127.36L88.517 121.305C88.5543 121.198 88.6267 121.1 88.734 121.011C88.846 120.922 88.9813 120.878 89.14 120.878H89.693C89.8563 120.878 89.9893 120.918 90.092 120.997C90.1947 121.076 90.2717 121.179 90.323 121.305L92.304 127.36C92.402 127.649 92.4907 127.983 92.57 128.361C92.6307 127.992 92.6983 127.659 92.773 127.36L94.495 121.305C94.523 121.188 94.593 121.088 94.705 121.004C94.8217 120.92 94.9593 120.878 95.118 120.878H96.595ZM113.446 125.939C113.446 126.681 113.322 127.369 113.075 128.004C112.832 128.634 112.487 129.18 112.039 129.642C111.591 130.104 111.052 130.466 110.422 130.727C109.792 130.984 109.092 131.112 108.322 131.112C107.557 131.112 106.859 130.984 106.229 130.727C105.599 130.466 105.058 130.104 104.605 129.642C104.157 129.18 103.809 128.634 103.562 128.004C103.315 127.369 103.191 126.681 103.191 125.939C103.191 125.197 103.315 124.511 103.562 123.881C103.809 123.246 104.157 122.698 104.605 122.236C105.058 121.774 105.599 121.415 106.229 121.158C106.859 120.897 107.557 120.766 108.322 120.766C108.835 120.766 109.318 120.827 109.771 120.948C110.224 121.065 110.639 121.233 111.017 121.452C111.395 121.667 111.733 121.93 112.032 122.243C112.335 122.551 112.592 122.896 112.802 123.279C113.012 123.662 113.171 124.077 113.278 124.525C113.39 124.973 113.446 125.444 113.446 125.939ZM111.521 125.939C111.521 125.384 111.446 124.887 111.297 124.448C111.148 124.005 110.935 123.629 110.66 123.321C110.385 123.013 110.049 122.777 109.652 122.614C109.26 122.451 108.817 122.369 108.322 122.369C107.827 122.369 107.382 122.451 106.985 122.614C106.593 122.777 106.257 123.013 105.977 123.321C105.702 123.629 105.489 124.005 105.34 124.448C105.191 124.887 105.116 125.384 105.116 125.939C105.116 126.494 105.191 126.994 105.34 127.437C105.489 127.876 105.702 128.249 105.977 128.557C106.257 128.86 106.593 129.094 106.985 129.257C107.382 129.42 107.827 129.502 108.322 129.502C108.817 129.502 109.26 129.42 109.652 129.257C110.049 129.094 110.385 128.86 110.66 128.557C110.935 128.249 111.148 127.876 111.297 127.437C111.446 126.994 111.521 126.494 111.521 125.939ZM130.913 125.939C130.913 126.681 130.789 127.369 130.542 128.004C130.299 128.634 129.954 129.18 129.506 129.642C129.058 130.104 128.518 130.466 127.888 130.727C127.259 130.984 126.558 131.112 125.788 131.112C125.023 131.112 124.325 130.984 123.695 130.727C123.065 130.466 122.524 130.104 122.071 129.642C121.623 129.18 121.276 128.634 121.028 128.004C120.781 127.369 120.657 126.681 120.657 125.939C120.657 125.197 120.781 124.511 121.028 123.881C121.276 123.246 121.623 122.698 122.071 122.236C122.524 121.774 123.065 121.415 123.695 121.158C124.325 120.897 125.023 120.766 125.788 120.766C126.302 120.766 126.785 120.827 127.238 120.948C127.69 121.065 128.106 121.233 128.484 121.452C128.862 121.667 129.2 121.93 129.499 122.243C129.802 122.551 130.059 122.896 130.269 123.279C130.479 123.662 130.637 124.077 130.744 124.525C130.857 124.973 130.913 125.444 130.913 125.939ZM128.988 125.939C128.988 125.384 128.913 124.887 128.763 124.448C128.614 124.005 128.402 123.629 128.127 123.321C127.851 123.013 127.515 122.777 127.118 122.614C126.726 122.451 126.283 122.369 125.788 122.369C125.294 122.369 124.848 122.451 124.451 122.614C124.06 122.777 123.723 123.013 123.443 123.321C123.168 123.629 122.956 124.005 122.806 124.448C122.657 124.887 122.582 125.384 122.582 125.939C122.582 126.494 122.657 126.994 122.806 127.437C122.956 127.876 123.168 128.249 123.443 128.557C123.723 128.86 124.06 129.094 124.451 129.257C124.848 129.42 125.294 129.502 125.788 129.502C126.283 129.502 126.726 129.42 127.118 129.257C127.515 129.094 127.851 128.86 128.127 128.557C128.402 128.249 128.614 127.876 128.763 127.437C128.913 126.994 128.988 126.494 128.988 125.939ZM147.714 125.939C147.714 126.681 147.59 127.362 147.343 127.983C147.096 128.604 146.748 129.138 146.3 129.586C145.852 130.034 145.313 130.382 144.683 130.629C144.053 130.876 143.353 131 142.583 131H138.726V120.878H142.583C143.353 120.878 144.053 121.004 144.683 121.256C145.313 121.503 145.852 121.851 146.3 122.299C146.748 122.742 147.096 123.274 147.343 123.895C147.59 124.516 147.714 125.197 147.714 125.939ZM145.782 125.939C145.782 125.384 145.707 124.887 145.558 124.448C145.413 124.005 145.201 123.631 144.921 123.328C144.646 123.02 144.31 122.784 143.913 122.621C143.521 122.458 143.078 122.376 142.583 122.376H140.616V129.502H142.583C143.078 129.502 143.521 129.42 143.913 129.257C144.31 129.094 144.646 128.86 144.921 128.557C145.201 128.249 145.413 127.876 145.558 127.437C145.707 126.994 145.782 126.494 145.782 125.939ZM168.799 120.878L165.656 131H163.955L161.743 124.084C161.683 123.916 161.627 123.711 161.575 123.468C161.547 123.585 161.519 123.694 161.491 123.797C161.463 123.9 161.433 123.995 161.4 124.084L159.167 131H157.459L154.323 120.878H155.898C156.062 120.878 156.197 120.918 156.304 120.997C156.416 121.072 156.491 121.174 156.528 121.305L158.25 127.36C158.288 127.509 158.323 127.673 158.355 127.85C158.393 128.023 158.43 128.205 158.467 128.396C158.505 128.2 158.544 128.016 158.586 127.843C158.633 127.67 158.682 127.509 158.733 127.36L160.721 121.305C160.759 121.198 160.831 121.1 160.938 121.011C161.05 120.922 161.186 120.878 161.344 120.878H161.897C162.061 120.878 162.194 120.918 162.296 120.997C162.399 121.076 162.476 121.179 162.527 121.305L164.508 127.36C164.606 127.649 164.695 127.983 164.774 128.361C164.835 127.992 164.903 127.659 164.977 127.36L166.699 121.305C166.727 121.188 166.797 121.088 166.909 121.004C167.026 120.92 167.164 120.878 167.322 120.878H168.799ZM185.65 125.939C185.65 126.681 185.527 127.369 185.279 128.004C185.037 128.634 184.691 129.18 184.243 129.642C183.795 130.104 183.256 130.466 182.626 130.727C181.996 130.984 181.296 131.112 180.526 131.112C179.761 131.112 179.063 130.984 178.433 130.727C177.803 130.466 177.262 130.104 176.809 129.642C176.361 129.18 176.014 128.634 175.766 128.004C175.519 127.369 175.395 126.681 175.395 125.939C175.395 125.197 175.519 124.511 175.766 123.881C176.014 123.246 176.361 122.698 176.809 122.236C177.262 121.774 177.803 121.415 178.433 121.158C179.063 120.897 179.761 120.766 180.526 120.766C181.04 120.766 181.523 120.827 181.975 120.948C182.428 121.065 182.843 121.233 183.221 121.452C183.599 121.667 183.938 121.93 184.236 122.243C184.54 122.551 184.796 122.896 185.006 123.279C185.216 123.662 185.375 124.077 185.482 124.525C185.594 124.973 185.65 125.444 185.65 125.939ZM183.725 125.939C183.725 125.384 183.651 124.887 183.501 124.448C183.352 124.005 183.14 123.629 182.864 123.321C182.589 123.013 182.253 122.777 181.856 122.614C181.464 122.451 181.021 122.369 180.526 122.369C180.032 122.369 179.586 122.451 179.189 122.614C178.797 122.777 178.461 123.013 178.181 123.321C177.906 123.629 177.694 124.005 177.544 124.448C177.395 124.887 177.32 125.384 177.32 125.939C177.32 126.494 177.395 126.994 177.544 127.437C177.694 127.876 177.906 128.249 178.181 128.557C178.461 128.86 178.797 129.094 179.189 129.257C179.586 129.42 180.032 129.502 180.526 129.502C181.021 129.502 181.464 129.42 181.856 129.257C182.253 129.094 182.589 128.86 182.864 128.557C183.14 128.249 183.352 127.876 183.501 127.437C183.651 126.994 183.725 126.494 183.725 125.939ZM196.523 125.694C196.878 125.694 197.186 125.65 197.447 125.561C197.713 125.472 197.93 125.351 198.098 125.197C198.271 125.038 198.399 124.852 198.483 124.637C198.567 124.422 198.609 124.187 198.609 123.93C198.609 123.417 198.439 123.022 198.098 122.747C197.762 122.472 197.246 122.334 196.551 122.334H195.347V125.694H196.523ZM201.367 131H199.666C199.344 131 199.111 130.874 198.966 130.622L196.838 127.381C196.759 127.26 196.67 127.173 196.572 127.122C196.479 127.071 196.339 127.045 196.152 127.045H195.347V131H193.464V120.878H196.551C197.237 120.878 197.825 120.95 198.315 121.095C198.81 121.235 199.213 121.433 199.526 121.69C199.843 121.947 200.077 122.255 200.226 122.614C200.375 122.969 200.45 123.361 200.45 123.79C200.45 124.131 200.399 124.453 200.296 124.756C200.198 125.059 200.053 125.335 199.862 125.582C199.675 125.829 199.442 126.046 199.162 126.233C198.887 126.42 198.572 126.567 198.217 126.674C198.338 126.744 198.45 126.828 198.553 126.926C198.656 127.019 198.749 127.131 198.833 127.262L201.367 131ZM210.503 125.12H210.944C211.121 125.12 211.268 125.097 211.385 125.05C211.502 124.999 211.602 124.919 211.686 124.812L214.479 121.277C214.596 121.128 214.717 121.025 214.843 120.969C214.974 120.908 215.137 120.878 215.333 120.878H216.957L213.548 125.085C213.347 125.342 213.14 125.524 212.925 125.631C213.079 125.687 213.217 125.766 213.338 125.869C213.464 125.967 213.583 126.098 213.695 126.261L217.209 131H215.55C215.326 131 215.158 130.97 215.046 130.909C214.939 130.844 214.848 130.75 214.773 130.629L211.91 126.891C211.821 126.765 211.719 126.676 211.602 126.625C211.485 126.574 211.317 126.548 211.098 126.548H210.503V131H208.62V120.878H210.503V125.12ZM226.268 131H224.378V120.878H226.268V131ZM243.227 120.878V131H242.261C242.112 131 241.986 130.977 241.883 130.93C241.785 130.879 241.689 130.795 241.596 130.678L236.311 123.93C236.339 124.238 236.353 124.523 236.353 124.784V131H234.694V120.878H235.681C235.76 120.878 235.828 120.883 235.884 120.892C235.945 120.897 235.996 120.911 236.038 120.934C236.085 120.953 236.129 120.983 236.171 121.025C236.213 121.062 236.26 121.114 236.311 121.179L241.617 127.955C241.603 127.792 241.591 127.631 241.582 127.472C241.573 127.313 241.568 127.166 241.568 127.031V120.878H243.227ZM259.985 125.925V130.02C259.472 130.398 258.923 130.676 258.34 130.853C257.761 131.026 257.141 131.112 256.478 131.112C255.652 131.112 254.903 130.984 254.231 130.727C253.564 130.47 252.992 130.113 252.516 129.656C252.045 129.199 251.681 128.653 251.424 128.018C251.167 127.383 251.039 126.69 251.039 125.939C251.039 125.178 251.163 124.481 251.41 123.846C251.657 123.211 252.007 122.665 252.46 122.208C252.917 121.751 253.47 121.396 254.119 121.144C254.768 120.892 255.496 120.766 256.303 120.766C256.714 120.766 257.096 120.799 257.451 120.864C257.81 120.929 258.142 121.02 258.445 121.137C258.753 121.249 259.033 121.387 259.285 121.55C259.537 121.713 259.768 121.893 259.978 122.089L259.439 122.943C259.355 123.078 259.245 123.162 259.11 123.195C258.975 123.223 258.828 123.188 258.669 123.09C258.515 123.001 258.361 122.913 258.207 122.824C258.053 122.735 257.88 122.658 257.689 122.593C257.502 122.528 257.29 122.474 257.052 122.432C256.819 122.39 256.548 122.369 256.24 122.369C255.741 122.369 255.288 122.453 254.882 122.621C254.481 122.789 254.138 123.029 253.853 123.342C253.568 123.655 253.349 124.03 253.195 124.469C253.041 124.908 252.964 125.398 252.964 125.939C252.964 126.518 253.046 127.036 253.209 127.493C253.377 127.946 253.61 128.331 253.909 128.648C254.212 128.961 254.576 129.201 255.001 129.369C255.426 129.532 255.899 129.614 256.422 129.614C256.795 129.614 257.129 129.574 257.423 129.495C257.717 129.416 258.004 129.308 258.284 129.173V127.339H257.01C256.889 127.339 256.793 127.306 256.723 127.241C256.658 127.171 256.625 127.087 256.625 126.989V125.925H259.985Z" fill="white"/>
</svg>
