<?xml version="1.0" standalone="no"?>
<!DOCTYPE svg PUBLIC "-//W3C//DTD SVG 20010904//EN"
 "http://www.w3.org/TR/2001/REC-SVG-20010904/DTD/svg10.dtd">
<svg version="1.0" xmlns="http://www.w3.org/2000/svg"
 width="608.000000pt" height="608.000000pt" viewBox="0 0 608.000000 608.000000"
 preserveAspectRatio="xMidYMid meet">
<metadata>
Created by potrace 1.14, written by Peter Selinger 2001-2017
</metadata>
<g transform="translate(0.000000,608.000000) scale(0.100000,-0.100000)"
fill="#000000" stroke="none">
<path d="M3178 6022 c-63 -98 -155 -276 -300 -577 -197 -411 -246 -497 -299
-526 -14 -7 -71 1 -220 32 -110 22 -202 39 -203 38 -2 -2 17 -105 41 -229 24
-124 46 -268 50 -321 l6 -97 -28 -18 c-22 -14 -57 -19 -191 -24 -95 -3 -168
-10 -175 -17 -14 -14 6 -89 87 -321 205 -586 227 -652 209 -652 -19 0 -191
125 -407 297 -65 51 -121 93 -126 93 -5 0 -25 -37 -46 -82 -52 -117 -97 -188
-118 -188 -10 0 -96 76 -193 169 -96 94 -185 173 -196 176 -24 8 -30 1 -110
-129 -65 -107 -101 -136 -168 -136 -25 0 -129 14 -231 30 -102 17 -215 33
-252 36 -82 8 -79 20 -43 -181 59 -328 68 -391 62 -417 -5 -19 -26 -39 -65
-64 -45 -29 -151 -110 -215 -164 -6 -5 267 -261 396 -371 l30 -25 -137 -79
c-75 -43 -151 -91 -168 -106 l-32 -26 74 -48 c82 -53 365 -223 810 -488 414
-246 680 -425 680 -457 0 -19 -84 -237 -172 -450 -174 -418 -248 -610 -248
-649 0 -17 4 -18 48 -9 84 18 321 88 597 178 149 48 396 127 550 175 154 47
381 118 505 157 l225 71 290 -97 c304 -101 420 -136 445 -136 75 2 -677 270
-757 270 -44 0 -399 -89 -1042 -260 -468 -124 -623 -161 -634 -151 -12 11 12
69 151 368 205 439 261 585 248 639 -8 29 -125 108 -646 434 -355 222 -635
407 -663 437 -16 19 -16 21 2 37 11 10 61 39 112 65 51 26 97 54 103 63 14 22
-43 87 -207 236 -123 113 -177 170 -177 189 0 5 33 26 72 48 95 53 98 61 74
218 -35 238 -40 287 -28 299 13 13 91 4 289 -33 117 -22 124 -22 158 -6 21 10
52 41 77 76 24 33 48 59 53 58 6 -1 93 -90 195 -197 102 -107 188 -195 191
-195 15 0 89 105 127 182 45 88 60 99 120 88 77 -14 178 -77 387 -239 149
-116 290 -213 368 -252 40 -21 47 -22 47 -8 0 55 -63 279 -130 464 -145 402
-236 766 -199 797 9 7 71 12 155 15 101 2 146 7 157 17 28 22 22 87 -32 391
-12 63 -21 134 -21 158 0 41 1 42 33 42 18 0 59 -7 90 -15 131 -34 133 -32
329 393 50 108 108 240 130 292 44 106 91 185 115 194 39 15 67 -33 300 -518
95 -198 177 -362 181 -364 5 -1 70 8 145 21 75 14 137 23 137 21 0 -2 -22
-137 -50 -300 -27 -163 -50 -298 -50 -300 0 -1 90 -4 199 -6 110 -2 202 -6
205 -9 7 -6 -43 -153 -268 -787 -143 -404 -199 -573 -191 -580 7 -7 87 54 436
334 319 256 462 364 482 364 15 0 34 -28 83 -125 26 -49 57 -105 71 -123 l24
-32 31 17 c17 10 95 90 174 179 150 167 194 207 221 202 8 -2 33 -32 54 -68
60 -102 67 -110 99 -110 16 0 107 13 202 29 174 30 318 47 318 39 0 -2 -18
-103 -40 -224 -44 -239 -47 -276 -26 -293 28 -24 41 -3 43 72 1 39 18 159 38
266 19 107 35 207 35 223 0 27 -1 28 -57 28 -32 0 -130 -11 -217 -25 -220 -34
-236 -34 -287 12 -48 43 -99 127 -99 163 -1 85 -46 61 -241 -126 -88 -85 -172
-160 -189 -169 -29 -15 -29 -15 -58 27 -16 24 -45 77 -64 118 -19 41 -44 86
-56 100 -20 25 -21 25 -54 7 -18 -10 -139 -97 -268 -193 -229 -171 -287 -211
-297 -201 -11 11 138 449 291 857 67 178 75 206 62 216 -9 6 -83 14 -173 17
-168 7 -233 19 -233 43 0 8 23 130 51 272 59 300 70 392 47 392 -9 0 -69 -14
-134 -31 -224 -58 -259 -66 -268 -61 -19 11 -397 811 -497 1050 -49 121 -61
145 -74 149 -5 1 -27 -23 -47 -55z"/>
</g>
</svg>
