<?xml version="1.0" standalone="no"?>
<!DOCTYPE svg PUBLIC "-//W3C//DTD SVG 20010904//EN"
 "http://www.w3.org/TR/2001/REC-SVG-20010904/DTD/svg10.dtd">
<svg version="1.0" xmlns="http://www.w3.org/2000/svg"
 width="192.000000pt" height="192.000000pt" viewBox="0 0 192.000000 192.000000"
 preserveAspectRatio="xMidYMid meet">
<metadata>
Created by potrace 1.14, written by Peter Selinger 2001-2017
</metadata>
<g transform="translate(0.000000,192.000000) scale(0.100000,-0.100000)"
fill="#000000" stroke="none">
<path d="M1032 1532 c-10 -10 -80 -105 -156 -210 -122 -171 -156 -211 -156
-184 0 5 -16 27 -36 50 -41 48 -70 53 -101 20 -32 -35 -583 -808 -583 -818 0
-5 10 -16 22 -24 20 -14 126 -16 939 -16 881 0 918 1 940 19 23 18 23 19 4 47
-65 100 -781 1093 -801 1112 -30 27 -48 28 -72 4z m73 -307 c20 -154 40 -293
44 -308 6 -27 11 -22 76 89 39 65 75 119 81 121 11 4 354 -707 354 -733 0 -11
-36 -14 -198 -14 l-198 0 -249 348 c-137 191 -249 356 -249 367 0 26 284 429
294 418 5 -4 25 -134 45 -288z m-271 -434 c102 -216 183 -397 180 -402 -7 -11
-971 -12 -978 -1 -4 8 526 753 572 805 13 14 18 15 27 5 7 -7 96 -190 199
-407z"/>
</g>
</svg>
